<?xml version="1.0" standalone="no"?>
<!DOCTYPE svg PUBLIC "-//W3C//DTD SVG 20010904//EN"
 "http://www.w3.org/TR/2001/REC-SVG-20010904/DTD/svg10.dtd">
<svg version="1.0" xmlns="http://www.w3.org/2000/svg"
 width="299.000000pt" height="168.000000pt" viewBox="0 0 299.000000 168.000000"
 preserveAspectRatio="xMidYMid meet">
<metadata>
Created by potrace 1.16, written by Peter Selinger 2001-2019
</metadata>
<g transform="translate(0.000000,168.000000) scale(0.100000,-0.100000)"
fill="#000000" stroke="none">
<path d="M0 840 l0 -840 351 0 350 0 -28 38 c-15 20 -43 54 -62 74 -19 21 -41
48 -50 60 -8 13 -31 38 -50 56 -25 23 -29 32 -17 32 23 0 106 -38 106 -49 0
-5 17 -25 37 -45 32 -31 44 -36 83 -36 43 0 44 -1 20 -14 -18 -9 -29 -10 -39
-2 -12 9 -12 7 -2 -11 14 -28 15 -28 52 0 26 19 42 22 106 20 74 -1 170 -15
244 -34 27 -7 40 -17 49 -39 16 -39 10 -45 -32 -32 -18 6 -66 16 -106 23 -40
7 -68 15 -61 19 6 5 0 10 -16 14 -14 4 -31 3 -38 -1 -7 -4 -42 -10 -79 -13
-57 -4 -66 -7 -57 -20 8 -11 12 -12 16 -2 2 6 9 10 14 6 5 -3 5 -13 -1 -25
-10 -17 -7 -19 34 -19 24 0 46 4 48 8 2 5 18 12 35 15 25 5 33 3 33 -8 0 -13
128 -15 1025 -15 l1025 0 0 840 0 840 -1495 0 -1495 0 0 -840z m1280 769 c34
-35 37 -36 100 -34 36 2 57 1 48 -2 -22 -6 -24 -23 -3 -23 9 0 18 -12 21 -28
5 -25 11 -29 41 -30 27 -1 34 2 29 13 -3 8 -1 15 4 15 5 0 10 10 12 22 4 29
24 34 31 7 7 -26 27 -21 46 13 13 23 13 28 -1 42 -21 20 -35 20 -46 0 -7 -13
-13 -14 -28 -6 -18 11 -18 11 4 12 13 0 21 4 18 9 -8 12 51 21 179 26 104 5
108 4 70 -9 l-40 -14 40 -3 c22 -1 56 -1 76 0 23 1 43 -4 53 -14 9 -9 21 -13
26 -10 6 4 17 2 24 -5 8 -6 26 -8 40 -4 20 5 26 2 26 -10 0 -9 -8 -16 -20 -16
-16 0 -19 -6 -16 -35 4 -58 27 -63 28 -6 1 23 6 31 20 31 10 0 18 4 18 9 0 15
38 23 57 12 10 -6 12 -11 6 -11 -19 0 -16 -18 5 -23 9 -3 -4 -5 -30 -6 -27 0
-48 -6 -48 -12 0 -5 5 -7 10 -4 15 9 51 -5 44 -17 -4 -6 0 -15 7 -20 10 -6 3
-8 -23 -6 -22 2 -36 0 -35 -7 1 -5 -15 -11 -35 -13 -57 -5 -46 -18 28 -32 48
-9 68 -10 77 -1 8 8 1 11 -28 12 l-40 1 35 9 c20 4 60 4 93 -1 32 -5 64 -7 72
-3 8 3 15 0 15 -7 0 -8 -11 -11 -30 -8 -16 3 -30 0 -30 -5 0 -6 19 -7 45 -4
30 5 45 3 45 -4 0 -8 -20 -10 -59 -7 -33 2 -58 1 -55 -4 5 -8 -204 -12 -321
-7 -33 2 -77 3 -98 2 -25 -1 -37 3 -34 10 2 7 10 12 18 12 7 0 15 8 17 17 3
13 -3 17 -20 16 -13 0 -39 4 -60 9 -25 8 -39 8 -47 0 -7 -7 -16 -5 -30 7 -21
19 -41 14 -41 -10 0 -8 -7 -14 -16 -14 -11 0 -15 -6 -11 -20 4 -16 1 -18 -24
-13 -18 3 -29 1 -29 -6 0 -16 -27 -13 -34 4 -7 18 -42 20 -50 3 -3 -7 -3 -2 0
11 4 13 2 21 -3 18 -5 -3 -16 3 -24 15 -8 11 -25 32 -39 45 l-25 24 36 -6 c23
-4 39 -3 43 4 4 6 0 11 -8 11 -8 0 -22 7 -30 16 -9 9 -16 11 -16 4 0 -6 -4 -9
-9 -6 -5 4 -11 1 -13 -5 -2 -7 -22 -2 -54 15 -27 14 -70 29 -96 32 -60 8 -161
-4 -152 -18 4 -7 2 -8 -5 -4 -6 4 -19 2 -27 -5 -13 -10 -17 -10 -25 2 -5 8 -9
21 -9 29 0 9 -7 26 -16 38 l-16 23 153 -3 154 -3 35 -36z m-775 21 c3 -5 19
-10 34 -10 71 0 209 -108 195 -153 -4 -12 -2 -17 4 -13 17 10 35 -62 30 -120
-3 -33 -1 -54 6 -54 5 0 3 -6 -6 -12 -32 -27 -55 -75 -60 -123 -3 -27 -9 -59
-13 -70 -19 -48 34 19 67 83 44 89 55 100 73 76 8 -11 14 -28 14 -39 1 -27
-34 -101 -65 -142 -50 -65 -5 -31 52 40 88 108 93 112 74 63 -5 -14 -6 -26 -1
-26 14 0 23 -32 11 -44 -19 -19 -10 -23 28 -16 37 6 38 6 34 -19 -3 -14 -15
-42 -28 -62 -12 -20 -31 -54 -40 -75 -10 -22 -20 -42 -22 -46 -7 -14 75 -8
104 7 37 19 69 19 88 -1 20 -19 20 -28 2 -21 -9 4 -13 1 -10 -7 3 -7 -4 -21
-16 -31 -14 -13 -17 -21 -9 -31 7 -9 7 -25 -1 -55 -10 -38 -10 -45 6 -56 9 -7
20 -10 25 -8 4 3 10 1 14 -5 3 -5 20 -10 36 -10 22 0 28 4 22 13 -8 12 -9 17
-12 40 -1 9 -4 8 -10 -2 -7 -11 -11 -9 -21 8 -9 19 -9 26 5 41 9 10 16 31 15
47 -3 45 -1 53 14 53 15 0 16 -44 1 -90 -6 -19 -4 -21 14 -15 16 5 20 3 15 -9
-3 -9 -3 -27 0 -41 8 -30 41 -34 43 -5 1 11 -2 20 -7 20 -4 0 -10 6 -13 13 -3
8 1 14 9 14 7 0 11 -4 9 -8 -6 -8 19 -19 46 -19 26 0 24 10 -11 47 -17 18 -30
34 -30 37 0 6 23 2 37 -7 7 -4 24 -5 38 -1 17 4 25 2 27 -7 0 -8 3 -27 4 -44
2 -16 4 -133 4 -260 0 -126 5 -258 11 -293 8 -47 8 -67 0 -75 -6 -6 -12 -25
-12 -42 -1 -21 -3 -24 -6 -10 -5 19 -20 35 -35 35 -5 0 -8 -12 -8 -27 0 -28
-1 -27 -44 19 -32 34 -46 43 -50 32 -10 -25 -25 -15 -23 15 1 22 5 27 15 19 9
-8 12 -6 12 6 0 11 5 15 13 11 6 -4 4 0 -5 8 -17 13 -149 31 -210 28 -16 -1
-28 3 -28 8 0 4 -14 7 -32 5 -45 -6 -48 -14 -4 -14 20 0 35 -4 32 -9 -3 -5 31
-12 77 -15 45 -4 90 -9 100 -12 24 -7 22 -34 -2 -29 -15 3 -18 -1 -14 -12 5
-13 -3 -14 -58 -8 -123 13 -290 49 -254 55 6 1 -1 5 -15 9 l-25 7 37 38 c30
30 35 40 25 50 -9 11 -14 9 -23 -8 -6 -12 -15 -20 -21 -19 -6 1 -14 -9 -17
-22 -4 -14 -11 -25 -16 -25 -14 0 -12 17 2 23 9 4 9 8 3 14 -12 9 -13 48 -2
59 4 4 7 18 7 30 0 31 35 51 45 26 6 -15 8 -14 20 8 l13 25 10 -25 c5 -14 8
-42 6 -62 l-4 -36 36 8 c46 11 50 15 29 37 -17 16 -85 152 -85 168 0 4 -16 30
-36 57 -38 53 -39 78 -2 78 44 0 66 -12 78 -40 l12 -28 29 31 c29 31 29 32 45
12 31 -40 95 -165 113 -220 19 -56 19 -57 0 -52 -10 3 -19 1 -19 -4 0 -5 -4
-9 -10 -9 -5 0 -10 7 -10 15 0 8 -4 15 -9 15 -5 0 -13 10 -17 22 -6 19 -64
108 -87 133 -5 6 -1 -8 8 -30 9 -22 19 -47 23 -55 3 -8 23 -42 44 -76 l38 -61
66 -2 c39 -1 63 2 60 8 -3 5 0 12 6 14 8 4 7 6 -3 6 -23 1 -31 40 -13 58 19
20 18 26 -12 52 -19 16 -25 30 -21 47 2 13 0 24 -5 24 -5 0 -46 36 -91 80 -45
44 -88 80 -95 80 -8 0 -10 -5 -6 -12 4 -7 -7 -2 -25 11 -17 13 -38 20 -46 18
-7 -3 -19 1 -26 10 -11 13 -10 18 10 34 17 14 27 16 36 9 9 -8 14 -4 17 15 3
14 4 25 2 25 -2 0 -38 -16 -80 -35 l-77 -35 6 -50 c3 -27 2 -52 -4 -55 -5 -4
-9 -18 -10 -33 -1 -41 -33 -128 -44 -122 -5 3 -9 13 -8 23 2 9 -3 17 -11 17
-16 0 -28 60 -15 75 12 12 11 45 -1 45 -5 0 -10 11 -10 24 0 32 -19 44 -35 23
-7 -9 -14 -15 -17 -12 -2 3 -19 1 -36 -4 -42 -13 -47 -1 -22 53 22 48 35 62
45 46 13 -21 25 -8 25 28 0 53 -42 182 -60 182 -3 0 -3 -26 1 -57 4 -32 8 -79
8 -105 l1 -47 -30 17 c-16 9 -30 23 -30 30 0 8 -5 10 -12 5 -19 -11 -31 -10
-50 7 -28 23 -21 32 21 28 l39 -3 7 65 c4 36 12 74 18 85 6 11 11 25 12 30 0
6 9 27 19 48 16 32 21 36 34 25 12 -10 14 -10 8 0 -4 6 -3 12 3 12 5 0 12 8
14 18 3 9 5 2 6 -16 0 -18 -4 -42 -9 -53 -8 -15 -7 -19 4 -19 10 0 19 19 26
58 7 31 17 65 22 75 9 18 8 18 -24 0 -64 -35 -247 -16 -274 28 -5 8 -2 10 7 4
8 -4 -8 13 -35 39 -27 25 -54 46 -60 46 -6 0 0 -7 12 -16 12 -8 20 -20 16 -25
-4 -7 -10 -6 -18 0 -7 6 -16 7 -22 2 -5 -5 -20 -5 -34 1 -18 6 -21 11 -12 17
7 4 15 23 18 42 l5 34 -25 -30 -26 -30 1 140 c2 160 8 184 68 238 l41 37 109
0 c63 0 112 -4 116 -10z m704 -76 c32 -9 69 -30 94 -53 23 -21 47 -36 53 -34
7 2 15 -8 18 -24 5 -18 10 -23 15 -14 24 38 29 -120 6 -183 -8 -22 -11 -44 -8
-49 4 -6 1 -7 -7 -2 -8 5 -11 3 -8 -6 3 -8 15 -15 27 -17 12 -2 25 -10 28 -19
5 -12 8 -12 15 -1 7 9 8 7 5 -9 -4 -20 -1 -23 24 -23 34 0 33 2 13 -39 -13
-26 -19 -30 -30 -20 -17 14 -18 5 -2 -20 9 -15 3 -33 -35 -106 -26 -48 -47
-96 -47 -106 0 -23 -21 -69 -32 -69 -4 0 -8 12 -8 26 0 14 -4 22 -10 19 -5 -3
-28 4 -50 15 -22 11 -45 18 -50 15 -6 -3 -10 -1 -10 4 0 6 -7 11 -15 11 -14 0
-14 3 -1 29 16 29 41 45 57 35 5 -3 9 -21 9 -40 0 -39 9 -43 35 -14 12 13 16
30 13 55 -3 23 0 35 8 35 7 0 10 8 7 20 -3 11 -10 20 -16 20 -5 0 -2 9 8 20
10 11 24 20 32 20 17 0 32 37 25 62 -5 19 -22 25 -22 7 0 -5 -10 -9 -22 -7
-14 2 -22 -2 -20 -9 1 -7 -5 -13 -13 -13 -23 0 -18 24 10 50 14 13 25 34 25
47 0 13 4 23 9 23 20 0 61 104 61 153 0 51 -32 112 -44 85 -3 -7 -3 -2 0 11 4
16 2 21 -5 17 -6 -4 -21 3 -33 14 -86 81 -231 90 -320 19 -61 -48 -58 -39 10
34 17 18 91 45 128 46 11 1 44 -6 73 -15z m1117 -539 c9 -8 12 -19 9 -25 -3
-5 -2 -10 3 -10 6 0 8 -10 5 -22 -5 -19 -3 -21 8 -10 16 15 49 16 49 1 0 -5
-5 -7 -11 -4 -5 4 -18 0 -29 -10 -20 -19 -43 -22 -83 -11 -25 6 -28 4 -22 -13
8 -26 -7 -34 -31 -16 -26 20 -36 18 -29 -4 3 -10 1 -29 -4 -42 -9 -24 -10 -23
-16 9 -6 23 -13 32 -29 33 -21 0 -21 0 2 9 12 5 22 15 21 22 0 10 -2 10 -6 1
-2 -7 -9 -13 -14 -13 -6 0 -8 4 -4 9 3 5 -2 16 -10 24 -23 23 -18 30 14 24 19
-4 33 -1 41 7 6 8 27 14 46 14 19 0 38 3 41 6 4 3 -2 6 -13 6 -10 0 -26 5 -34
11 -12 8 -9 9 12 5 15 -3 30 -2 33 4 9 15 34 12 51 -5z m-2064 -79 c7 4 8 2 4
-5 -4 -6 -11 -9 -16 -6 -4 3 -6 -4 -3 -15 3 -13 10 -18 17 -13 7 5 4 1 -6 -8
-16 -15 -16 -18 -2 -23 8 -3 12 -10 9 -16 -4 -6 1 -7 10 -3 11 4 13 8 5 13 -8
5 -7 10 2 18 10 8 13 5 15 -15 1 -17 -5 -27 -18 -30 -10 -3 -19 -10 -19 -15 0
-6 11 -7 25 -4 14 4 26 2 27 -4 0 -5 1 -14 2 -18 1 -8 -32 -53 -76 -104 -10
-11 -29 -20 -43 -20 -20 0 -24 -4 -20 -19 4 -10 2 -26 -3 -35 -6 -11 -10 39
-11 140 -1 99 2 156 9 156 5 0 10 -6 10 -12 0 -16 50 40 50 56 0 6 5 3 11 -7
6 -9 15 -14 21 -11z m134 -141 c-4 -17 0 -31 13 -44 11 -11 22 -40 26 -68 3
-26 10 -75 15 -108 5 -33 13 -98 16 -145 6 -67 11 -88 27 -100 20 -16 20 -17
-3 -38 -13 -12 -30 -22 -38 -22 -8 0 -12 -6 -9 -14 3 -8 -4 -18 -18 -24 -18
-8 -25 -8 -28 2 -4 10 1 12 15 8 18 -4 20 -2 13 14 -14 34 -17 71 -6 78 6 4
11 12 11 17 0 6 -4 8 -9 5 -18 -12 -29 22 -35 119 -9 121 -35 244 -48 221 -5
-9 -6 -21 -3 -26 3 -6 1 -10 -5 -10 -6 0 -18 -7 -26 -15 -9 -8 -24 -15 -36
-15 -18 0 -17 4 12 43 17 23 48 65 68 94 40 57 58 67 48 28z m-139 -221 c3 -9
0 -20 -8 -24 -17 -11 -7 -22 24 -24 19 -1 24 -6 23 -24 -1 -17 -6 -22 -18 -19
-16 5 -16 3 -1 -27 17 -32 22 -47 26 -78 1 -10 9 -25 17 -35 18 -21 24 -56 16
-89 -8 -32 -26 -21 -26 16 0 16 -4 32 -10 35 -5 3 -16 27 -24 53 -8 26 -22 66
-31 90 -8 24 -12 48 -9 54 4 7 2 8 -4 4 -7 -4 -12 -2 -12 5 0 7 -8 5 -20 -6
-29 -26 -26 -71 5 -91 l25 -16 -21 -19 c-12 -11 -26 -19 -30 -19 -12 0 -20 58
-17 115 3 42 6 50 23 50 11 0 21 8 23 18 2 9 8 14 14 11 7 -4 8 -2 4 4 -8 14
0 32 15 32 5 0 12 -7 16 -16z m-111 -229 c-18 -14 -18 -15 8 -25 15 -5 35 -10
45 -10 26 0 30 -8 20 -43 -6 -21 -5 -33 3 -38 6 -4 13 -15 14 -23 5 -36 -116
-9 -157 35 l-27 29 21 15 c16 11 24 12 35 2 13 -10 14 -8 9 15 -6 21 -2 30 15
42 28 20 40 20 14 1z"/>
</g>
</svg>
